# xmcd CD database file
#
# Track frame offsets:
#	150
#	18620
#	34830
#	57105
#	73626
#	86340
#	108911
#	125155
#	142568
#	157998
#	174044
#	192342
#	205522
#	227611
#	249521
#	264831
#	280081
#	289011
#	292301
#
# Disc length: 3950 seconds
#
# Revision: 0
# Processed by: cddbd v1.5.1PL2 Copyright (c) Steve Scherf et al.
# Submitted via: CDex 1.51
#
DISCID=030f6c13
DTITLE=Ella Fitzgerald - Ella Gold Vol 1
DYEAR=1900
DGENRE=Jazz
TTITLE0=Let's Fall In Love
TTITLE1=Ev'ry Time We Say Goodbye
TTITLE2=Summertime
TTITLE3=A Fine Romance
TTITLE4=The Very Thought Of You
TTITLE5=Mack The Knife
TTITLE6=Let's Do It
TTITLE7=Cheek To Cheek
TTITLE8=The Lady Is A Tramp
TTITLE9=Get Happy
TTITLE10=I Get A Kick Out Of You
TTITLE11=Misty
TTITLE12=Embraceable You
TTITLE13=I Love Paris
TTITLE14=I Can't Give You Anything But Love
TTITLE15=Georgia On My Mind
TTITLE16=But Not For Me
TTITLE17=Blue Skies
TTITLE18=Someone To Watch Over Me
EXTD=
EXTT0=
EXTT1=
EXTT2=
EXTT3=
EXTT4=
EXTT5=
EXTT6=
EXTT7=
EXTT8=
EXTT9=
EXTT10=
EXTT11=
EXTT12=
EXTT13=
EXTT14=
EXTT15=
EXTT16=
EXTT17=
EXTT18=
PLAYORDER=
